# xmcd
#
# Track frame offsets: 
#        150
#        16094
#        32946
#        52097
#        70013
#        85571
#        103901
#        121796
#        138982
#        161452
#        177861
#
# Disc length: 2617 seconds
#
# Revision: 0
# Processed by: cddbd v1.5.1PL0 Copyright (c) Steve Scherf et al.
# Submitted via: ExactAudioCopy v0.95b2
#
DISCID=860a370b
DTITLE=The Warren Brothers - The Difference
DYEAR=1900
DGENRE=Country
TTITLE0=Horseshoes And Hand Grenades
TTITLE1=What If Women Ran The World
TTITLE2=Hey Mr. President
TTITLE3=Southern Baptist Heartbreak
TTITLE4=The Difference
TTITLE5=Sell A Lot Of Beer
TTITLE6=Perfect Day
TTITLE7=Ain't That Why We're Here
TTITLE8=Come Back
TTITLE9=Break The Record
TTITLE10=Watch The Band
EXTD=
EXTT0=
EXTT1=
EXTT2=
EXTT3=
EXTT4=
EXTT5=
EXTT6=
EXTT7=
EXTT8=
EXTT9=
EXTT10=
PLAYORDER=
